<svg width="1080" height="1080" viewBox="0 0 1080 1080" fill="none" xmlns="http://www.w3.org/2000/svg"><path d="M885.25 53.25H357.41C337.666 53.25 321.66 69.2558 321.66 89V578.25C321.66 597.994 337.666 614 357.41 614H885.25C904.994 614 921 597.994 921 578.25V89C921 69.2558 904.994 53.25 885.25 53.25Z" fill="#C2E7FF" stroke="#C2E7FF" stroke-width="4.5" stroke-linecap="round" stroke-linejoin="round"/><path d="M474.86 134.93V112.04L505.41 142.58H482.52C480.49 142.58 478.544 141.774 477.107 140.34C475.671 138.906 474.863 136.96 474.86 134.93Z" stroke="#1F1F1F" stroke-width="4.5" stroke-linecap="round" stroke-linejoin="round"/><path d="M474.34 111.58H398.55C397.544 111.58 396.548 111.778 395.618 112.163C394.689 112.548 393.844 113.112 393.133 113.824C392.422 114.535 391.858 115.379 391.473 116.309C391.088 117.238 390.89 118.234 390.89 119.24V243.93C390.89 244.936 391.088 245.931 391.473 246.86C391.858 247.789 392.422 248.633 393.134 249.343C393.845 250.054 394.69 250.617 395.619 251.001C396.548 251.384 397.544 251.581 398.55 251.58H497.24C498.245 251.581 499.24 251.384 500.169 251C501.097 250.616 501.941 250.053 502.652 249.342C503.363 248.632 503.926 247.788 504.31 246.859C504.694 245.93 504.891 244.935 504.89 243.93V142.18L474.34 111.58Z" stroke="#1F1F1F" stroke-width="4.5" stroke-linecap="round" stroke-linejoin="round"/><path d="M643.11 142.64C642.105 142.641 641.109 142.444 640.18 142.061C639.25 141.677 638.406 141.113 637.694 140.403C636.983 139.692 636.419 138.849 636.034 137.92C635.648 136.991 635.45 135.996 635.45 134.99V112.1L666 142.64H643.11Z" stroke="#1F1F1F" stroke-width="4.5" stroke-linecap="round" stroke-linejoin="round"/><path d="M635.45 112.1H559.71C558.704 112.099 557.708 112.296 556.779 112.679C555.85 113.063 555.005 113.627 554.294 114.337C553.583 115.048 553.018 115.891 552.633 116.82C552.248 117.749 552.05 118.745 552.05 119.75V244.21C552.052 246.24 552.861 248.186 554.297 249.62C555.733 251.054 557.68 251.86 559.71 251.86H658.34C660.37 251.86 662.316 251.054 663.753 249.62C665.189 248.186 665.997 246.24 666 244.21V142.64L635.45 112.1Z" stroke="#1F1F1F" stroke-width="4.5" stroke-linecap="round" stroke-linejoin="round"/><path d="M850.92 251.8H720.67C718.655 251.8 716.722 250.999 715.296 249.574C713.871 248.149 713.07 246.216 713.07 244.2V152.2C713.07 150.184 713.871 148.251 715.296 146.826C716.722 145.401 718.655 144.6 720.67 144.6H760.34C761.698 144.601 763.039 144.891 764.276 145.452C765.512 146.012 766.615 146.83 767.51 147.85L777.09 158.78H850.9C852.916 158.78 854.849 159.581 856.274 161.006C857.7 162.431 858.5 164.364 858.5 166.38V244.19C858.503 246.204 857.706 248.137 856.285 249.563C854.864 250.99 852.934 251.795 850.92 251.8Z" stroke="#1F1F1F" stroke-width="4.5" stroke-linecap="round" stroke-linejoin="round"/><path d="M535.68 1027.35L597.24 747.75" stroke="#1F1F1F" stroke-width="4.5" stroke-linecap="round" stroke-linejoin="round"/><path d="M339.73 271.71L335.5 237.82C335.5 237.82 360.35 239.82 360.35 211.28C360.35 182.74 339.73 164.98 318.56 164.98C297.39 164.98 282.7 185.31 292.56 209.87C302.42 234.43 310.35 241.78 295.38 264.65L339.73 271.71Z" fill="#BC7B40" stroke="#1F1F1F" stroke-width="4.5" stroke-linecap="round" stroke-linejoin="round"/><path d="M323.641 218.34C323.641 212.98 312.91 209.87 312.91 201.68C312.91 193.49 326.461 189.26 333.241 201.68C339.691 210.28 351.781 194.05 355.371 188.83C347.991 173.75 333.37 164.98 318.56 164.98C297.38 164.98 282.7 185.31 292.56 209.87C296.79 220.38 300.65 227.73 302.56 234.5C318.12 233.21 323.641 226.24 323.641 218.34Z" fill="#202124" stroke="#202124" stroke-width="4.5" stroke-linecap="round" stroke-linejoin="round"/><path d="M171.45 477.26C185.85 429.26 215.76 371.37 215.76 371.37L191.03 399.52L131.92 327.24C131.92 327.24 227.92 254.77 310.37 254.77C379.02 254.77 437.99 334.95 437.99 334.95L404.67 426.44L369.1 386.91L378.7 517.35L171.45 477.26Z" fill="white" stroke="#1F1F1F" stroke-width="4.5" stroke-linecap="round" stroke-linejoin="round"/><path d="M171.45 477.26C178.23 449.02 388.3 469.92 378.7 517.35C372.49 549.54 162.42 521.87 171.45 477.26Z" fill="#1F1F1F" stroke="#1F1F1F" stroke-width="4.5" stroke-linecap="round" stroke-linejoin="round"/><path d="M608.82 283.57C608.82 283.57 622.09 262.67 638.74 266.57C655.39 270.47 691.26 283.23 669.8 324.17L608.82 283.57Z" fill="#FFBB29" stroke="#1F1F1F" stroke-width="4.5" stroke-linecap="round" stroke-linejoin="round"/><path d="M693.895 355.184C700.642 344.349 675.414 316.451 637.547 292.872C599.68 269.293 563.514 258.961 556.767 269.796C550.021 280.63 575.249 308.528 613.116 332.107C650.983 355.687 687.149 366.018 693.895 355.184Z" fill="#FFDF99" stroke="#1F1F1F" stroke-width="4.5" stroke-linecap="round" stroke-linejoin="round"/><path d="M838.08 680.83L957.52 955.19H798.27L734.74 685.07L838.08 680.83Z" fill="#F9DEDC" stroke="#F9DEDC" stroke-width="4.5" stroke-linecap="round" stroke-linejoin="round"/><path d="M957.52 955.19C949.52 936.9 796.58 931.38 798.27 955.19C799.96 979 960.91 989.83 957.52 955.19Z" fill="#1F1F1F" stroke="#1F1F1F" stroke-width="4.5" stroke-linecap="round" stroke-linejoin="round"/><path d="M919.34 942.64C932.09 1007.8 1023.01 1002.02 1023.01 1027.36H832.51C832.51 1027.36 831.7 970.68 837.19 940.53C837.21 940.53 896.46 938.25 919.34 942.64Z" fill="white" stroke="#1F1F1F" stroke-width="4.5" stroke-linecap="round" stroke-linejoin="round"/><path d="M56.25 1027.35H1015.12" stroke="#1F1F1F" stroke-width="4.5" stroke-linecap="round" stroke-linejoin="round"/><path d="M216.43 464.58C216.43 464.58 181.62 508.32 177.1 563.66C172.58 619 128.53 958.93 128.53 958.93H265.19L282.13 623.5L383.78 958.93L520.44 946.51L341.99 483.45C341.99 483.45 294.75 464.58 216.43 464.58Z" fill="#FFDF99" stroke="#FFDF99" stroke-width="4.5" stroke-linecap="round" stroke-linejoin="round"/><path d="M128.53 958.93C128.53 932.93 263.53 925.62 265.19 958.93C266.85 992.24 124.02 989.45 128.53 958.93Z" fill="#1F1F1F" stroke="#1F1F1F" stroke-width="4.5" stroke-linecap="round" stroke-linejoin="round"/><path d="M167.34 939.36C167.34 939.36 151.12 983.36 142.65 1027.36H324.49C316.58 1003 231.31 1006.17 233.57 939.36C233.57 939.36 208.41 933.32 167.34 939.36Z" fill="white" stroke="#1F1F1F" stroke-width="4.5" stroke-linecap="round" stroke-linejoin="round"/><path d="M383.78 958.93C376.53 935.02 511.97 922.23 520.44 946.51C528.91 970.79 394.45 994.15 383.78 958.93Z" fill="#1F1F1F" stroke="#1F1F1F" stroke-width="4.5" stroke-linecap="round" stroke-linejoin="round"/><path d="M409.88 940.77C409.88 940.77 408.3 994.12 409.88 1027.36H581.43C573.52 1001.87 504.06 1016.44 474.13 933.48C474.13 933.48 426.78 934.69 409.88 940.77Z" fill="white" stroke="#1F1F1F" stroke-width="4.5" stroke-linecap="round" stroke-linejoin="round"/><path d="M383.78 958.95L259.54 545.02" stroke="#1F1F1F" stroke-width="4.5" stroke-linecap="round" stroke-linejoin="round"/><path d="M131.92 327.24C149.99 310.11 207.78 373.17 191.03 399.52C174.28 425.87 112.72 351.14 131.92 327.24Z" fill="#1F1F1F" stroke="#1F1F1F" stroke-width="4.5" stroke-linecap="round" stroke-linejoin="round"/><path d="M369.1 386.9V336.08" stroke="#1F1F1F" stroke-width="4.5" stroke-linecap="round" stroke-linejoin="round"/><path d="M215.76 371.36L229.53 339" stroke="#1F1F1F" stroke-width="4.5" stroke-linecap="round" stroke-linejoin="round"/><path d="M404.67 426.44C392.82 408.37 414.84 321.97 437.99 334.95C452.79 350.8 435.17 445.64 404.67 426.44Z" fill="#1F1F1F" stroke="#1F1F1F" stroke-width="4.5" stroke-linecap="round" stroke-linejoin="round"/><path d="M402.69 393.13C402.69 393.13 435.48 412.89 458.22 412.89C480.96 412.89 543.03 268.32 543.03 268.32C556.58 246.32 592.97 236.4 592.97 222.57C592.97 208.74 592.7 201.4 592.7 201.4L613.03 184.74C618.39 180.74 616.84 173.59 612.03 176.13C607.22 178.67 572.38 199.99 572.38 199.99C559.96 205.99 543.38 222.99 536.62 231.99C529.86 240.99 452.78 350.8 452.78 350.8L437.98 334.95C421.05 326.48 406.39 366.47 402.69 393.13Z" fill="#BC7B40" stroke="#1F1F1F" stroke-width="4.5" stroke-linecap="round" stroke-linejoin="round"/><path d="M217.19 264.74C188.81 204.14 273.85 164.98 307.36 227.1C339.11 285.93 247.88 330.25 217.19 264.74Z" fill="#202124" stroke="#202124" stroke-width="4.5" stroke-linecap="round" stroke-linejoin="round"/><path d="M182.7 514.72L119.88 434.15L191.74 375.69C191.74 375.69 182 346.33 152.82 328.5L81.1 397.64C63.4 420.98 57.38 436.41 81.1 461.64C104.82 486.87 151.1 522.44 151.1 522.44C171.1 548.44 158.1 605.44 167.69 606.52C171.69 606.87 172.8 604.6 173.69 596.41C173.69 596.41 176.43 550.94 184.62 525.78C185.232 523.92 185.377 521.939 185.042 520.01C184.707 518.081 183.903 516.265 182.7 514.72Z" fill="#BC7B40" stroke="#1F1F1F" stroke-width="4.5" stroke-linecap="round" stroke-linejoin="round"/><path d="M119.87 434.15L106.23 445.36" stroke="#1F1F1F" stroke-width="4.5" stroke-linecap="round" stroke-linejoin="round"/><path d="M792.66 1027.35L731.11 747.75" stroke="#1F1F1F" stroke-width="4.5" stroke-linecap="round" stroke-linejoin="round"/><path d="M548.95 722.58C514.51 681.68 482.32 620.69 482.32 524.98Z" fill="white"/><path d="M548.95 722.58C514.51 681.68 482.32 620.69 482.32 524.98" stroke="#1F1F1F" stroke-width="4.5" stroke-linecap="round" stroke-linejoin="round"/><path d="M547.02 571.57C547.02 571.57 523.83 711.77 597.24 711.77H798.24L711.24 895.71L853.54 989.45C853.54 989.45 935.79 758.45 895.33 673.21C863.71 606.56 638.96 554.62 638.96 554.62L547.02 571.57Z" fill="#F9DEDC" stroke="#F9DEDC" stroke-width="4.5" stroke-linecap="round" stroke-linejoin="round"/><path d="M711.34 895.71C723.54 869.89 880.2 934.82 853.64 989.45C833.85 1030.11 685.34 937.49 711.34 895.71Z" fill="#1F1F1F" stroke="#1F1F1F" stroke-width="4.5" stroke-linecap="round" stroke-linejoin="round"/><path d="M769.01 899.74C769.01 899.74 719.22 949.35 704.53 967.99L750.84 1027.36H875.07C870.56 1008.08 822.32 1009.36 819.73 980.42C817.47 955.19 832.05 935.83 832.05 935.83C832.05 935.83 800.04 908.52 769.01 899.74Z" fill="white" stroke="#1F1F1F" stroke-width="4.5" stroke-linecap="round" stroke-linejoin="round"/><path d="M710.74 1027.36C710.74 1027.36 690.16 974.91 704.53 967.99C731.11 955.19 785.29 1027.36 785.29 1027.36H710.74Z" fill="white" stroke="#1F1F1F" stroke-width="4.5" stroke-linecap="round" stroke-linejoin="round"/><path d="M711.31 895.7L812.68 680.83" stroke="#1F1F1F" stroke-width="4.5" stroke-linecap="round" stroke-linejoin="round"/><path d="M642.79 388.98L636.39 358.86C635.64 347.19 652.58 341.92 659.73 325.73C659.73 325.73 632.25 296.73 602.51 287.33C594.795 297.059 585.726 305.633 575.58 312.79C575.341 312.959 575.151 313.189 575.029 313.455C574.907 313.721 574.858 314.015 574.887 314.306C574.915 314.598 575.02 314.877 575.191 315.114C575.362 315.352 575.593 315.54 575.86 315.66L580.67 317.82C580.67 317.82 562.6 344.93 573.14 349.45C583.68 353.97 596.49 353.97 596.49 353.97L585.57 386.72L642.79 388.98Z" fill="#F2D9C4" stroke="#1F1F1F" stroke-width="4.5" stroke-linecap="round" stroke-linejoin="round"/><path d="M731.11 580.68C739.3 566.31 742.5 554.34 725.11 548.41C707.72 542.48 667.34 561.79 667.34 561.79C667.34 561.79 718.63 576.53 731.11 580.68Z" fill="#1F1F1F" stroke="#1F1F1F" stroke-width="4.5" stroke-linecap="round" stroke-linejoin="round"/><path d="M734.74 554.19L714.13 521.31L781.23 454.67C781.23 454.67 698.32 376.74 607.97 376.74C517.62 376.74 441.34 443.38 441.34 443.38L532.22 503.24L518.14 604.32C592.14 608.84 678.52 547.32 719.14 547.32C728.44 547.28 734.74 554.19 734.74 554.19Z" fill="white" stroke="#1F1F1F" stroke-width="4.5" stroke-linecap="round" stroke-linejoin="round"/><path d="M532.25 503.23L540.7 446.2" stroke="#1F1F1F" stroke-width="4.5" stroke-linecap="round" stroke-linejoin="round"/><path d="M714.13 521.31C697.76 494.2 671.78 436.04 671.78 436.04Z" fill="white"/><path d="M714.13 521.31C697.76 494.2 671.78 436.04 671.78 436.04" stroke="#1F1F1F" stroke-width="4.5" stroke-linecap="round" stroke-linejoin="round"/><path d="M441.34 443.38C457.72 428.93 533.73 493.04 533.73 493.04L529.73 521.31C529.73 521.31 412.02 471.61 441.34 443.38Z" fill="#1F1F1F" stroke="#1F1F1F" stroke-width="4.5" stroke-linecap="round" stroke-linejoin="round"/><path d="M459.34 443.7C459.34 443.7 415.41 476.13 415.41 503.24C415.41 530.35 482.33 524.98 482.33 524.98H529.24L533.78 493.04C533.78 493.04 483.77 451.93 459.34 443.7Z" fill="#F2D9C4" stroke="#1F1F1F" stroke-width="4.5" stroke-linecap="round" stroke-linejoin="round"/><path d="M774.95 460.93C774.95 460.93 861.52 595.3 876.95 613.75C892.38 632.2 920.95 664.82 920.95 696.32C920.95 727.82 915.85 751.16 906.54 739.11C906.54 739.11 907.4 690.27 892.34 667.82C877.28 645.37 848.6 630.4 837.01 623.88C820.01 614.3 727.87 507.63 727.87 507.63L774.95 460.93Z" fill="#F2D9C4" stroke="#1F1F1F" stroke-width="4.5" stroke-linecap="round" stroke-linejoin="round"/><path d="M659.73 325.73C659.73 325.73 632.25 296.73 602.51 287.33C612.2 295.14 600.81 326.77 611.31 326.77C617.85 326.77 619.54 318.01 627.59 320.41C635.64 322.81 639.22 335.71 617.85 344.84C608.85 352.18 638.16 367.21 638.17 367.21L636.39 358.86C635.64 347.19 652.58 341.93 659.73 325.73Z" fill="#202124" stroke="#202124" stroke-width="4.5" stroke-linecap="round" stroke-linejoin="round"/><path d="M482.34 524.98H611.54C613.258 524.979 614.96 525.316 616.548 525.973C618.136 526.629 619.58 527.593 620.795 528.808C622.011 530.022 622.975 531.465 623.633 533.052C624.291 534.64 624.63 536.341 624.63 538.06V619.47C624.63 621.189 624.291 622.89 623.633 624.478C622.975 626.065 622.011 627.508 620.795 628.722C619.58 629.937 618.136 630.9 616.548 631.557C614.96 632.214 613.258 632.551 611.54 632.55H498.54C498.54 632.55 482.34 590.01 482.34 524.98Z" fill="#C4EED0" stroke="#1F1F1F" stroke-width="4.5" stroke-linecap="round" stroke-linejoin="round"/><path d="M553.34 711.77H774.95C776.204 711.768 777.43 712.141 778.47 712.842C779.51 713.542 780.316 714.538 780.785 715.701C781.254 716.864 781.364 718.14 781.102 719.366C780.839 720.592 780.215 721.712 779.31 722.58C764.23 737.16 729.4 761.31 664.14 761.31C598.88 761.31 564.06 737.16 548.97 722.58C548.07 721.709 547.451 720.589 547.191 719.364C546.932 718.139 547.044 716.864 547.513 715.703C547.983 714.541 548.788 713.547 549.826 712.846C550.864 712.146 552.088 711.771 553.34 711.77Z" fill="#C4EED0" stroke="#1F1F1F" stroke-width="4.5" stroke-linecap="round" stroke-linejoin="round"/><path d="M853.61 989.45C853.61 989.45 890.88 884.81 902.9 790.39" stroke="#1F1F1F" stroke-width="4.5" stroke-linecap="round" stroke-linejoin="round"/><path d="M895.4 673.21C870.75 621.21 728.72 578.21 667.31 561.79" stroke="#1F1F1F" stroke-width="4.5" stroke-linecap="round" stroke-linejoin="round"/><path d="M171.45 477.26C178.23 449.02 388.3 469.92 378.7 517.35" stroke="#1F1F1F" stroke-width="4.5" stroke-linecap="round" stroke-linejoin="round"/><path d="M439.51 736.53L341.99 483.47" stroke="#1F1F1F" stroke-width="4.5" stroke-linecap="round" stroke-linejoin="round"/></svg>